<svg xmlns="http://www.w3.org/2000/svg" xmlns:xlink="http://www.w3.org/1999/xlink" width="1024" zoomAndPan="magnify" viewBox="0 0 768 767.999994" height="1024" preserveAspectRatio="xMidYMid meet" version="1.0"><defs><clipPath id="95e3dbc80a"><path d="M 76.800781 76.800781 L 691.199219 76.800781 L 691.199219 691.199219 L 76.800781 691.199219 Z M 76.800781 76.800781 " clip-rule="nonzero"/></clipPath><clipPath id="26f97f59d7"><path d="M 384 76.800781 C 214.339844 76.800781 76.800781 214.339844 76.800781 384 C 76.800781 553.660156 214.339844 691.199219 384 691.199219 C 553.660156 691.199219 691.199219 553.660156 691.199219 384 C 691.199219 214.339844 553.660156 76.800781 384 76.800781 Z M 384 76.800781 " clip-rule="nonzero"/></clipPath><clipPath id="1c547a814a"><path d="M 0.800781 0.800781 L 615.199219 0.800781 L 615.199219 615.199219 L 0.800781 615.199219 Z M 0.800781 0.800781 " clip-rule="nonzero"/></clipPath><clipPath id="b8445a5754"><path d="M 308 0.800781 C 138.339844 0.800781 0.800781 138.339844 0.800781 308 C 0.800781 477.660156 138.339844 615.199219 308 615.199219 C 477.660156 615.199219 615.199219 477.660156 615.199219 308 C 615.199219 138.339844 477.660156 0.800781 308 0.800781 Z M 308 0.800781 " clip-rule="nonzero"/></clipPath><clipPath id="ead716dbbe"><rect x="0" width="616" y="0" height="616"/></clipPath></defs><g clip-path="url(#95e3dbc80a)"><g clip-path="url(#26f97f59d7)"><g transform="matrix(1, 0, 0, 1, 76, 76)"><g clip-path="url(#ead716dbbe)"><g clip-path="url(#1c547a814a)"><g clip-path="url(#b8445a5754)"><path fill="#000000" d="M 0.800781 0.800781 L 615.199219 0.800781 L 615.199219 615.199219 L 0.800781 615.199219 Z M 0.800781 0.800781 " fill-opacity="1" fill-rule="nonzero"/></g></g></g></g></g></g></svg>