<svg xmlns="http://www.w3.org/2000/svg" xmlns:xlink="http://www.w3.org/1999/xlink" width="1024" zoomAndPan="magnify" viewBox="0 0 768 767.999994" height="1024" preserveAspectRatio="xMidYMid meet" version="1.0"><defs><clipPath id="37e4ba5739"><path d="M 132.835938 136.289062 L 635.335938 136.289062 L 635.335938 632 L 132.835938 632 Z M 132.835938 136.289062 " clip-rule="nonzero"/></clipPath></defs><g clip-path="url(#37e4ba5739)"><path fill="#ffffff" d="M 635.191406 383.996094 C 629.558594 714.058594 138.441406 714.007812 132.859375 383.984375 C 138.492188 53.929688 629.605469 53.984375 635.191406 383.996094 Z M 524.535156 225.878906 L 544.097656 206.105469 C 456.839844 124.144531 311.597656 123.445312 224.308594 205.683594 C 230.992188 213.941406 237.027344 219.519531 244.1875 225.574219 C 324.492188 154.007812 443.765625 154.683594 524.539062 225.878906 Z M 527.261719 332.449219 L 560.265625 345.253906 C 565.914062 347.445312 574.535156 346.355469 577.625 340.78125 C 584.128906 329.023438 569.570312 312.40625 561.535156 304.476562 C 533.386719 276.714844 532.453125 252.042969 520.769531 239.46875 C 502.5625 219.878906 480.246094 206.28125 455.246094 196.789062 C 386.089844 169.613281 301.21875 184.679688 248.769531 237.953125 C 234.996094 252.542969 235.964844 277.761719 204.046875 307.410156 C 196.859375 314.085938 190.8125 322.183594 188.75 331.730469 C 187.195312 338.917969 191.242188 345.269531 198.753906 345.855469 C 203.046875 346.191406 207.382812 345.882812 211.273438 344.242188 C 314.484375 297.066406 421.632812 289.253906 527.273438 332.441406 L 527.273438 332.457031 Z M 196.828125 357.433594 C 166.25 348.507812 177.136719 316.765625 194.238281 301.769531 C 221.796875 274.726562 218.8125 266.226562 236.507812 234.226562 C 229.304688 226.890625 223.304688 220.25 215.265625 214.019531 C 121.410156 307.464844 119.8125 456.582031 212.289062 550.816406 C 220.171875 544.792969 225.273438 539.121094 232.121094 531.328125 C 207.800781 506.625 192.191406 477.007812 180.511719 444.835938 C 176.671875 434.257812 182.335938 428.722656 182.671875 419.839844 C 183.492188 397.949219 183.394531 376.773438 196.832031 357.425781 Z M 585.539062 420.515625 C 585.78125 427.804688 590.984375 433.019531 588.539062 440.878906 C 577.914062 475.054688 560.527344 505.347656 535.972656 531.609375 C 543.109375 539.210938 547.667969 545.019531 556.164062 550.535156 C 648.910156 454.085938 645.996094 306.90625 552.351562 213.792969 C 544.25 220.570312 538.714844 226.597656 531.945312 234.050781 C 546.476562 260.097656 547.082031 274.152344 568.359375 295.585938 C 582.0625 308.117188 602.496094 337.097656 583.066406 351.742188 C 583.066406 351.742188 570.988281 358.574219 570.988281 358.574219 C 585.171875 377.367188 584.796875 398.335938 585.542969 420.519531 L 585.539062 420.519531 Z M 422.632812 496.417969 C 458.421875 418.371094 511.152344 419.449219 483.945312 336.636719 C 482.257812 331.792969 479.914062 328.273438 474.472656 326.824219 C 415.195312 311.0625 353.511719 310.617188 294.332031 326.761719 C 289.277344 328.140625 286.128906 331.148438 284.554688 335.800781 C 272.820312 370.480469 274.480469 406.582031 301.929688 433.339844 C 320.425781 451.367188 335.460938 471.410156 344.890625 495.644531 C 347.675781 502.8125 354.027344 507.695312 361.734375 508.738281 C 377.984375 510.929688 415.328125 514.53125 422.640625 496.417969 Z M 365.0625 572.894531 L 355.828125 516.570312 C 332.523438 508.351562 339.019531 492.296875 316.164062 462.8125 C 275.707031 420.777344 257.945312 393.289062 275.847656 332.207031 C 252.289062 338.738281 231.796875 347.851562 210.441406 356.773438 C 198.183594 373.429688 191.929688 392.148438 193.460938 412.363281 C 288.019531 417.9375 331.921875 477.417969 346.78125 566.40625 C 351.792969 570.21875 358.261719 572.167969 365.0625 572.894531 Z M 421.773438 565.800781 C 436.683594 476.292969 478.292969 417.78125 574.535156 413.355469 C 578.699219 352.546875 538.449219 348.351562 492.269531 332.148438 C 521.289062 422.601562 460.203125 431.457031 430.785156 500.367188 C 427.382812 508.980469 419.808594 513.609375 411.570312 516.945312 L 403.824219 572.898438 C 409.839844 572.246094 417.351562 570.242188 421.773438 565.800781 Z M 450.585938 573.574219 C 480.191406 562.457031 505.816406 546.667969 527.082031 524.570312 C 551.328125 499.375 568.621094 469.738281 577.960938 436.136719 C 583.273438 417.007812 542.632812 428.699219 536.59375 430.144531 C 501.5625 438.519531 472.800781 460.6875 456.277344 492.878906 C 444.582031 515.671875 436.601562 539.898438 433.941406 565.519531 C 433.207031 572.648438 443.792969 576.125 450.585938 573.574219 Z M 320.105469 510.824219 C 300.296875 458.03125 253.378906 423.632812 196.5 426.277344 C 191.601562 426.785156 190.105469 430.066406 189.65625 435.074219 C 208.648438 500.453125 255.378906 553.125 320.773438 574.359375 C 349.183594 578.089844 323.808594 524.902344 320.101562 510.816406 L 320.105469 510.816406 Z M 394.671875 573.894531 L 402.949219 518.746094 C 389.746094 518.628906 378.113281 519.820312 364.835938 517.890625 L 373.964844 574.570312 C 380.59375 575.9375 389.066406 577.445312 394.667969 573.890625 L 394.671875 573.890625 Z M 426.910156 576.710938 C 401.9375 589.015625 373.960938 590.34375 349.027344 579.53125 C 334.867188 573.390625 336.21875 590.34375 318.070312 584.898438 C 288.71875 576.105469 263.625 560.171875 240.433594 539.800781 C 232.945312 545.605469 228.183594 551.320312 221.042969 558.746094 C 311.507812 645.492188 454.847656 646.136719 547.15625 559.230469 C 541.078125 551.894531 535.417969 546.441406 528.179688 539.691406 C 512.761719 553.535156 443.71875 605.324219 426.910156 576.695312 Z M 426.910156 576.710938 " fill-opacity="1" fill-rule="nonzero"/></g><path fill="#ffffff" d="M 425.367188 392.121094 C 424.441406 446.476562 343.574219 446.460938 342.652344 392.121094 C 343.585938 337.773438 424.445312 337.78125 425.367188 392.121094 Z M 417.425781 392.070312 C 416.671875 348.109375 351.277344 348.117188 350.527344 392.070312 C 351.28125 436.027344 416.675781 436.023438 417.425781 392.070312 Z M 417.425781 392.070312 " fill-opacity="1" fill-rule="nonzero"/><path fill="#ffffff" d="M 556.316406 369.667969 C 580.207031 414.351562 547.125 404.984375 516.425781 412.277344 C 510.644531 413.238281 505.621094 409.6875 505.84375 403.585938 C 506.382812 388.804688 506.125 374.847656 505.390625 360.046875 C 505.140625 353.628906 508.972656 348.707031 515.960938 350.214844 C 526.175781 353.222656 550.9375 361.390625 556.316406 369.667969 Z M 528.984375 377.96875 C 529.285156 371.507812 528.78125 367.871094 527.253906 363.421875 C 523.207031 360.605469 519.375 358.921875 514.355469 358.355469 C 512.453125 364.933594 512.527344 371.46875 515.390625 377.453125 C 520.328125 378.253906 524.058594 379.003906 528.984375 377.96875 Z M 552.128906 376.976562 C 547.171875 369.660156 542.074219 368.035156 536.214844 366.320312 C 536.171875 369.871094 535.144531 375.257812 537.960938 377.398438 C 541.675781 380.21875 548.820312 380.46875 552.125 376.980469 Z M 532.230469 400.890625 C 531.878906 395.207031 531.832031 391.867188 530.335938 387.476562 C 525.023438 385.488281 520.328125 385.335938 514.554688 385.847656 C 513.875 391.816406 513.113281 397.191406 514.320312 403.59375 C 520.867188 403.960938 526.3125 402.945312 532.242188 400.898438 L 532.234375 400.898438 Z M 556.269531 397.039062 C 556.363281 391.90625 555.796875 389.332031 553.914062 387 C 548.53125 386.773438 544.460938 385.941406 539.226562 387.148438 C 538.523438 391.707031 538.859375 395.019531 539.726562 399.410156 C 545.359375 399.925781 550.308594 399.664062 556.277344 397.039062 Z M 556.269531 397.039062 " fill-opacity="1" fill-rule="nonzero"/><path fill="#ffffff" d="M 210.503906 405.269531 C 198.433594 403.21875 206.675781 379.8125 209.019531 374.007812 C 214.09375 361.421875 237.027344 354.921875 250.816406 350.40625 C 254.113281 349.324219 257.542969 350.105469 259.792969 351.90625 C 261.414062 353.207031 263.011719 356.519531 262.835938 360.007812 C 262.089844 374.894531 261.824219 388.859375 262.300781 403.730469 C 262.472656 409.074219 258.058594 413.355469 252.566406 412.421875 L 210.503906 405.269531 L 210.511719 405.269531 Z M 254.164062 377.339844 C 254.964844 369.953125 255.210938 364.96875 254.277344 358.257812 C 240.953125 359.496094 238.523438 365.605469 239.003906 378.144531 C 243.902344 378.542969 248.390625 378.835938 254.164062 377.339844 Z M 230.164062 376.769531 C 232.914062 373.671875 232.1875 369.640625 231.492188 366.578125 C 225.269531 367.777344 219.964844 370.375 216.355469 377.511719 C 219.972656 379.90625 226.832031 380.519531 230.164062 376.769531 Z M 228.871094 399.386719 C 229.632812 393.46875 230.125 390.980469 229.261719 387.273438 C 223.882812 386.226562 219.144531 386.121094 213.777344 387.667969 C 205.804688 400.03125 220.925781 400.070312 228.875 399.378906 Z M 254.300781 403.59375 C 254.632812 397.402344 254.882812 391.9375 253.242188 386.445312 C 247.417969 385.910156 243.285156 385.703125 238.445312 387.46875 C 236.882812 392.246094 236.285156 396.304688 236.695312 401.214844 C 242.773438 403.257812 247.988281 404.449219 254.304688 403.59375 Z M 254.300781 403.59375 " fill-opacity="1" fill-rule="nonzero"/></svg>